<svg xmlns="http://www.w3.org/2000/svg" xmlns:xlink="http://www.w3.org/1999/xlink" xmlns:lucid="lucid" width="1128" height="594"><g transform="translate(-107 -888)" lucid:page-tab-id="0_0"><path d="M0 0h1425.96v1845.36H0z" fill="#fff"/><path d="M146.8 1111.4h160v120h-160z" stroke="#000" fill="#99d2f2"/><use xlink:href="#a" transform="matrix(1,0,0,1,151.78999999999996,1116.4099999999999) translate(51.24492187500001 61.883056640625)"/><path d="M545.22 1111.4h160v120h-160z" stroke="#000" fill="#99d2f2"/><use xlink:href="#b" transform="matrix(1,0,0,1,550.2199999999999,1116.4099999999999) translate(22.592065429687523 61.883056640625)"/><path d="M334.36 1321.1H523.1v120H334.35z" stroke="#000" fill="#99d2f2"/><use xlink:href="#c" transform="matrix(1,0,0,1,339.3649999999999,1326.1099999999997) translate(11.641821289062534 61.883056640625)"/><path d="M348.73 943.65h160v120h-160z" stroke="#000" fill="#99d2f2"/><use xlink:href="#d" transform="matrix(1,0,0,1,353.7299999999999,948.6499999999997) translate(20.56127929687503 61.883056640625)"/><path d="M783.65 1111.4h160v120h-160z" stroke="#000" fill="#99d2f2"/><use xlink:href="#e" transform="matrix(1,0,0,1,788.6499999999999,1116.4099999999999) translate(39.95329589843752 61.883056640625)"/><path d="M1034.7 1111.4h160v120h-160z" stroke="#000" fill="#a3d977"/><use xlink:href="#f" transform="matrix(1,0,0,1,1039.6948148148153,1116.4099999999999) translate(26.153051757812527 61.883056640625)"/><path d="M307.8 1171.4h220.54" stroke="#000" fill="none"/><path d="M307.8 1171.9h-.5v-1h.5zM543.1 1171.4l-14.26 4.65v-9.28z"/><path d="M544.72 1171.4l-16.38 5.33v-10.64zm-15.38 3.96l12.14-3.95-12.14-3.94z"/><path d="M706.22 1171.4h60.55" stroke="#000" fill="none"/><path d="M706.23 1171.9h-.5v-1h.5zM781.53 1171.4l-14.26 4.65v-9.28z"/><path d="M783.15 1171.4l-16.38 5.33v-10.64zm-15.38 3.96l12.14-3.95-12.13-3.94z"/><path d="M944.65 1171.4h73.16" stroke="#000" fill="none"/><path d="M944.66 1171.9h-.5v-1h.5zM1032.58 1171.4l-14.27 4.65v-9.28z"/><path d="M1034.2 1171.4l-16.4 5.33v-10.64zm-15.4 3.96l12.16-3.95-12.15-3.94z"/><path d="M1114.7 1110.4v-101.75c0-2.76-2.24-5-5-5H525.6" stroke="#000" fill="none"/><path d="M1115.2 1110.9h-1v-.5h1zM525.1 1008.3l-14.25-4.65L525.1 999z"/><path d="M525.6 1008.97l-16.37-5.32 16.38-5.32zm-13.13-5.32l12.14 3.95v-7.9z"/><path d="M428.73 1064.65v101.76c0 2.77 2.24 5 5 5h94.6" stroke="#000" fill="none"/><path d="M429.23 1064.66h-1v-.5h1zM543.1 1171.4l-14.26 4.65v-9.28z"/><path d="M544.72 1171.4l-16.38 5.33v-10.64zm-15.38 3.96l12.14-3.95-12.14-3.94z"/><path d="M307.8 1171.4h220.54M307.8 1171.4h-.5" stroke="#000" fill="none"/><path d="M543.1 1171.4l-14.26 4.65v-9.28z" stroke="#000"/><path d="M428.73 1064.65V1304.23M428.73 1064.66v-.5" stroke="#000" fill="none"/><path d="M428.73 1319l-4.64-14.27h9.27z"/><path d="M428.73 1320.6l-5.32-16.37h10.65zm-3.95-15.37l3.95 12.14 3.95-12.14z"/><path d="M524.1 1381.1h334.55c2.76 0 5-2.23 5-5v-127.8" stroke="#000" fill="none"/><path d="M524.1 1381.6h-.5v-1h.5zM868.3 1247.8H859l4.65-14.27z"/><path d="M868.97 1248.3h-10.64l5.32-16.4zm-9.27-1h7.9l-3.95-12.15z"/><path d="M333.36 1381.1H231.8c-2.77 0-5-2.23-5-5v-127.8" stroke="#000" fill="none"/><path d="M333.87 1381.6h-.52v-1h.5zM231.43 1247.8h-9.28l4.64-14.27z"/><path d="M232.1 1248.3h-10.63l5.32-16.4zm-9.26-1h7.9l-3.95-12.15z"/><defs><path d="M43 0v-73c49-6 84-15 105-28s32-24 32-33v-980c-43-41-89-65-137-73v-73c101 1 207-4 303 2 36 15 48 43 72 76l612 848v-791c-20-45-79-50-137-62v-73h425v73c-48 7-83 16-105 29s-33 24-33 33V30c-111-7-195-43-239-104L330-920v786c21 43 79 50 138 61V0H43" id="g"/><path d="M733-120c149 2 180-100 223-210l73 26c-9 101-22 215-41 304H43v-73c45-9 80-20 103-31s34-21 34-30v-991c0-8-10-18-32-30s-57-23-105-32v-73h881l40 32c-8 91-21 200-41 278h-75c-3-62-12-110-25-142s-32-48-57-48H430v405h398l33 35c-26 43-55 94-92 126-60-70-209-53-339-55v445c3 49 47 53 98 60 50 7 142 4 205 4" id="h"/><path d="M1732-1187c-58 13-106 21-144 47-5 5-7 10-8 15L1351-59c-18 57-86 74-146 89L864-877 577-59c-23 57-94 75-159 89L158-1117c-20-50-66-54-138-70v-73h489v73c-51 5-87 11-115 29-14 9-18 21-13 41l171 732 292-875h100l335 875 161-740c-5-38-54-40-91-50-19-5-40-8-63-12v-73h446v73" id="i"/><g id="a"><use transform="matrix(0.011376953124999995,0,0,0.011376953124999995,0,0)" xlink:href="#g"/><use transform="matrix(0.011376953124999995,0,0,0.011376953124999995,15.461279296874993,0)" xlink:href="#h"/><use transform="matrix(0.011376953124999995,0,0,0.011376953124999995,27.70288085937499,0)" xlink:href="#i"/></g><path d="M644-1140c-115-71-322-32-312 118 8 121 112 163 201 211 153 82 329 146 407 303 48 97 22 239-26 316C821-43 638 56 388 23 288 10 187-22 116-68c-27-84-10-232 8-316l71 5c44 110 112 202 218 247 31 13 64 19 98 19 132 0 232-64 232-196 0-191-180-234-315-303-146-75-316-135-316-348 0-157 120-245 251-296 162-62 445-37 543 58 4 63-40 124-67 170-6 11-14 18-19 23l-66-6c-26-57-62-99-110-129" id="j"/><path d="M1151-1228c-5 98-22 200-38 288h-75c-17-67-17-142-52-186-8-10-19-14-33-14H706v995c11 31 44 40 80 53 20 7 46 13 77 19V0H300v-73c62-13 113-25 149-57 5-5 7-10 7-15v-995H202c-54 11-63 62-87 111-13 26-24 59-39 98L3-958c8-100 24-211 40-302h1070" id="k"/><path d="M747-550l-165-465-150 465h315zM392-430l-96 289c-7 21 1 36 24 45s62 17 117 23V0H0v-73c73-17 133-13 151-68l349-1066c60-51 139-84 222-110l420 1176c16 49 64 60 124 68V0H769v-73c52-3 87-10 105-20s24-26 17-48L789-430H392" id="l"/><path d="M575-586c-52 3-101 0-145-10v462c0 8 10 18 32 30s57 22 106 31V0H43v-73c45-9 80-20 103-31s34-21 34-30v-1023c-46 7-93 12-137 19l-13-92c295-67 842-131 974 124 18 37 28 76 28 119 0 205-123 310-279 367l315 436c31 48 78 71 161 59l15 73c-85 26-183 60-284 66-41 2-83-27-98-55zm205-370c0-187-150-240-350-226v476c33 6 54 7 89 7 174 2 261-90 261-257" id="m"/><path d="M63 0v-73c45-9 80-20 103-31s34-21 34-30v-991c0-8-10-18-32-30s-57-23-105-32v-73h525v73c-45 9-80 20-103 31s-35 22-35 31v991c0 8 11 18 33 30s57 22 105 31V0H63" id="n"/><path d="M1093-169C944-46 755 79 489 14 221-51 55-249 55-582c0-346 170-557 421-660 197-81 486-47 619 54-4 69-58 131-89 182-8 12-16 20-22 25l-63-14c-66-94-139-170-293-170-187 0-263 170-303 345-27 119-22 309 14 413 53 156 146 272 337 279 72 3 129-14 177-37v-305c-2-43-34-49-73-62-21-7-51-13-88-20v-73h498v73c-58 15-97 31-97 82v301" id="o"/><g id="b"><use transform="matrix(0.011376953124999995,0,0,0.011376953124999995,0,0)" xlink:href="#j"/><use transform="matrix(0.011376953124999995,0,0,0.011376953124999995,11.945800781249995,0)" xlink:href="#k"/><use transform="matrix(0.011376953124999995,0,0,0.011376953124999995,25.46162109374999,0)" xlink:href="#l"/><use transform="matrix(0.011376953124999995,0,0,0.011376953124999995,40.103759765624986,0)" xlink:href="#m"/><use transform="matrix(0.011376953124999995,0,0,0.011376953124999995,54.19980468749998,0)" xlink:href="#k"/><use transform="matrix(0.011376953124999995,0,0,0.011376953124999995,67.71562499999997,0)" xlink:href="#n"/><use transform="matrix(0.011376953124999995,0,0,0.011376953124999995,75.33818359374997,0)" xlink:href="#g"/><use transform="matrix(0.011376953124999995,0,0,0.011376953124999995,90.79946289062497,0)" xlink:href="#o"/></g><path d="M1328-1187c-71 18-136 14-155 66L797-82C765-17 678 9 602 30L147-1121c-24-45-64-56-134-66v-73h510v73c-53 4-89 11-106 21s-22 24-15 43l325 837 297-835c13-42-24-47-59-55-18-4-41-8-68-11v-73h431v73" id="p"/><path d="M835-895c0-223-165-306-405-287v1048c11 29 46 34 83 44 22 6 50 11 85 17V0H43v-73c45-9 80-20 103-31s34-21 34-30v-1024c-47 6-93 13-137 20l-13-92c266-56 702-113 915 31 82 54 142 136 142 263 0 233-144 351-331 404-86 24-194 10-261-18l-31-105c48 22 79 30 139 30 154 0 232-108 232-270" id="q"/><path d="M764-137c215-118 232-634 88-861-52-83-127-162-248-162-247 0-296 255-296 519 0 222 74 401 204 495 73 53 173 53 252 9zm295-954c108 134 178 390 117 620C1115-240 973-70 755 5 628 49 478 35 371-23 179-126 55-328 55-612c0-306 150-515 359-623 138-71 341-75 475-1 67 36 123 86 170 145" id="r"/><g id="c"><use transform="matrix(0.011376953124999995,0,0,0.011376953124999995,0,0)" xlink:href="#j"/><use transform="matrix(0.011376953124999995,0,0,0.011376953124999995,11.945800781249995,0)" xlink:href="#l"/><use transform="matrix(0.011376953124999995,0,0,0.011376953124999995,26.58793945312499,0)" xlink:href="#p"/><use transform="matrix(0.011376953124999995,0,0,0.011376953124999995,42.07197265624998,0)" xlink:href="#h"/><use transform="matrix(0.011376953124999995,0,0,0.011376953124999995,54.31357421874998,0)" xlink:href="#q"/><use transform="matrix(0.011376953124999995,0,0,0.011376953124999995,67.52221679687497,0)" xlink:href="#r"/><use transform="matrix(0.011376953124999995,0,0,0.011376953124999995,82.01645507812496,0)" xlink:href="#n"/><use transform="matrix(0.011376953124999995,0,0,0.011376953124999995,89.63901367187496,0)" xlink:href="#g"/><use transform="matrix(0.011376953124999995,0,0,0.011376953124999995,105.10029296874995,0)" xlink:href="#k"/><use transform="matrix(0.011376953124999995,0,0,0.011376953124999995,118.61611328124995,0)" xlink:href="#n"/><use transform="matrix(0.011376953124999995,0,0,0.011376953124999995,126.23867187499995,0)" xlink:href="#g"/><use transform="matrix(0.011376953124999995,0,0,0.011376953124999995,141.69995117187494,0)" xlink:href="#o"/></g><path d="M743-115c200-5 257-179 257-383v-627c0-8-10-18-32-30s-57-23-105-32v-73h450v73c-45 9-80 20-103 31s-35 22-35 31v601c-2 264-110 436-295 516-60 25-127 38-199 38-309 0-501-160-501-474v-681c0-8-10-18-32-30s-57-23-105-32v-73h525v73c-45 9-80 20-103 31s-35 22-35 31v616c0 238 75 400 313 394" id="s"/><path d="M578-1290c408 0 643 208 643 614 0 370-167 586-463 660C711-4 664 0 619 0H43v-73c45-9 80-20 103-31s34-21 34-30v-1023l-137 19-13-92c159-36 354-60 548-60zm375 653c-1-354-149-573-523-545v1015c7 64 80 60 152 60 213 0 307-172 354-361 12-50 17-106 17-169" id="t"/><g id="d"><use transform="matrix(0.011376953124999995,0,0,0.011376953124999995,0,0)" xlink:href="#s"/><use transform="matrix(0.011376953124999995,0,0,0.011376953124999995,15.575048828124993,0)" xlink:href="#q"/><use transform="matrix(0.011376953124999995,0,0,0.011376953124999995,28.78369140624999,0)" xlink:href="#t"/><use transform="matrix(0.011376953124999995,0,0,0.011376953124999995,43.61923828124998,0)" xlink:href="#l"/><use transform="matrix(0.011376953124999995,0,0,0.011376953124999995,58.26137695312497,0)" xlink:href="#k"/><use transform="matrix(0.011376953124999995,0,0,0.011376953124999995,71.77719726562496,0)" xlink:href="#n"/><use transform="matrix(0.011376953124999995,0,0,0.011376953124999995,79.39975585937496,0)" xlink:href="#g"/><use transform="matrix(0.011376953124999995,0,0,0.011376953124999995,94.86103515624995,0)" xlink:href="#o"/></g><path d="M0-1242c82-11 176-28 264-28 110 0 129 88 178 160 89 130 167 285 238 431l234-442c10-17 6-31-10-41s-50-18-101-25v-73h418v73c-74 17-122 18-148 66L752-523v378c11 31 44 40 80 53 20 7 47 13 78 19V0H345v-73c61-13 113-25 149-57 6-5 8-10 8-15v-384c-96-207-216-417-341-592-29-41-83-48-157-48" id="u"/><g id="e"><use transform="matrix(0.011376953124999995,0,0,0.011376953124999995,0,0)" xlink:href="#m"/><use transform="matrix(0.011376953124999995,0,0,0.011376953124999995,14.096044921874993,0)" xlink:href="#h"/><use transform="matrix(0.011376953124999995,0,0,0.011376953124999995,26.337646484374982,0)" xlink:href="#l"/><use transform="matrix(0.011376953124999995,0,0,0.011376953124999995,40.97978515624998,0)" xlink:href="#t"/><use transform="matrix(0.011376953124999995,0,0,0.011376953124999995,55.81533203124997,0)" xlink:href="#u"/></g><g id="f"><use transform="matrix(0.011376953124999995,0,0,0.011376953124999995,0,0)" xlink:href="#m"/><use transform="matrix(0.011376953124999995,0,0,0.011376953124999995,14.096044921874993,0)" xlink:href="#s"/><use transform="matrix(0.011376953124999995,0,0,0.011376953124999995,29.671093749999986,0)" xlink:href="#g"/><use transform="matrix(0.011376953124999995,0,0,0.011376953124999995,45.13237304687498,0)" xlink:href="#g"/><use transform="matrix(0.011376953124999995,0,0,0.011376953124999995,60.59365234374997,0)" xlink:href="#n"/><use transform="matrix(0.011376953124999995,0,0,0.011376953124999995,68.21621093749997,0)" xlink:href="#g"/><use transform="matrix(0.011376953124999995,0,0,0.011376953124999995,83.67749023437496,0)" xlink:href="#o"/></g></defs></g></svg>